<?xml version="1.0" encoding="UTF-8"?>
<svg id="Layer_1" data-name="Layer 1" xmlns="http://www.w3.org/2000/svg" viewBox="0 0 1182.67 356.72">
  <defs>
    <style>
      .cls-1, .cls-2 {
        fill: #0c2c55;
      }

      .cls-2 {
        font-family: Microsoft-Himalaya, 'Microsoft Himalaya';
        font-size: 306.56px;
        letter-spacing: -.05em;
      }
    </style>
  </defs>
  <path class="cls-1" d="M341.88,158.81h-181.07c-4.01,0-7.13,3.6-7.13,7.64v99.75c0,4.49,3.12,7.64,7.13,7.64h181.07c4.46,0,7.58-3.15,7.58-7.64v-99.75c0-4.05-3.12-7.64-7.58-7.64ZM266.95,246.88c0,2.7-2.23,4.94-4.91,4.94h-16.05l7.13-5.84c.45,0,.89-1.35.89-3.6v-25.16c0-1.35,0-2.7-.89-3.59l-7.13-6.29h16.05c2.68,0,4.91,2.25,4.91,5.39v34.15Z"/>
  <path class="cls-1" d="M251.47,63.89l-137.69,105.88c-.1.08-.05.24.08.24h275.39c.13,0,.18-.16.08-.24L251.63,63.89s-.12-.04-.16,0Z"/>
  <path class="cls-1" d="M192.37,300.98c11.88,4.44,1.23,10.11-8.48,13.72-3.04,1.13-17.66,3.58-8.8,4.31l169.1-.2c4.89-.63-.02-2.02-2.05-3.08-25.14-13.13-54.2-15.22-94.72-20.05-22.94-2.73-56.53-8.38-20.76-15.45,3.89-.77,27.85-6.24,28.47-6.56.92-.48.33-1.9-1.66-2.12-3.3-.37-27.49.52-32.85.73-15.51.61-60.26,5.87-69.24,10.48-7.63,3.91,4.38,8.3,12.64,10.89,7.84,2.46,22.03,4.96,28.36,7.33Z"/>
  <path class="cls-1" d="M259.2,345.18l-86.7-26.62c-.08-.02-.06-.14.02-.14h173.36c.08,0,.1.11.02.14l-86.7,26.62Z"/>
  <path class="cls-1" d="M247.9,28.14l-137.38,127.15c-4.53,4.78-2.07,14.73,3.65,14.73L251.55,42.04l136.83,127.97c5.72,0,8.18-9.94,3.65-14.73L255.19,28.14c-2.15-2.27-5.15-2.27-7.3,0Z"/>
  <text class="cls-2" transform="translate(401.24 229.61)"><tspan x="0" y="0">ascend.ai</tspan></text>
  <path class="cls-1" d="M434.14,258.58c132.39,3.49,326.25,10.69,119.8,19.72-22.47.98-118.65,3.51-122.24,3.92-5.32.62-1.92,2.42,9.59,2.7,19.07.47,158.66-.67,189.61-.94,89.53-.78,305.69-3.04,357.54-8.93,44.01-4.99-25.27-10.6-72.93-13.9-45.24-3.13-127.17-6.33-163.66-9.35"/>
</svg>