<?xml version="1.0" encoding="UTF-8"?>
<svg id="Layer_1" data-name="Layer 1" xmlns="http://www.w3.org/2000/svg" viewBox="0 0 48 48">
  <defs>
    <style>
      .cls-1, .cls-2 {
        fill: #0c2c55;
      }

      .cls-2 {
        font-family: Microsoft-Himalaya, 'Microsoft Himalaya';
        font-size: 22.61px;
        letter-spacing: -.05em;
      }
    </style>
  </defs>
  <path class="cls-1" d="M24.49,9.39L7.77,21.22c-.11.08-.05.24.08.24h33.45c.13,0,.18-.17.08-.24l-16.73-11.83s-.11-.03-.16,0Z"/>
  <path class="cls-1" d="M17.22,37.73c1.47.55.15,1.26-1.05,1.7-.38.14-2.23.55-1.13.66l21.24.04c.61-.1-.2-.44-.46-.57-3.12-1.63-6.73-1.89-11.76-2.49-2.85-.34-7.02-1.04-2.58-1.92.48-.1,3.46-.77,3.54-.81.11-.06.04-.24-.21-.26-.41-.05-3.41.06-4.08.09-1.93.08-7.48.73-8.6,1.3-.95.49.54,1.03,1.57,1.35.97.3,2.74.62,3.52.91Z"/>
  <path class="cls-1" d="M35.79,20.08H13.3c-.5,0-.89.45-.89.95v12.39c0,.56.39.95.89.95h22.49c.55,0,.94-.39.94-.95v-12.39c0-.5-.39-.95-.94-.95ZM26.48,31.01c0,.33-.28.61-.61.61h-1.99l.89-.73c.06,0,.11-.17.11-.45v-3.12c0-.17,0-.33-.11-.45l-.89-.78h1.99c.33,0,.61.28.61.67v4.24Z"/>
  <path class="cls-1" d="M25.59,43l-10.86-2.9c-.08-.02-.06-.14.02-.14h21.68c.08,0,.1.12.02.14l-10.86,2.9Z"/>
  <path class="cls-1" d="M24.1,3.85L7.47,19.64c-.63.59-.29,1.83.5,1.83L24.6,5.57l16.62,15.89c.79,0,1.13-1.24.5-1.83L25.1,3.85c-.3-.28-.71-.28-1.01,0Z"/>
  <text class="cls-2" transform="translate(.23 62.68)"><tspan x="0" y="0">ascend.ai</tspan></text>
  <path d="M961.34-108.24c1.62,1.23-.02,1.81-1.48,1.99-4.85.62-10.96-.27-16.04-.04-53.1,2.4-108.75,3.91-161.8,8.04-162.79,12.67-325.48,136.45-397,280.37l-82.57,184.2.18-3.82,59.53-171.26c47.37-144.16-17.8-276.39-175.61-289.49-48.99-4.07-99.84-4.48-148.89-6.96-7.71-.39-15.56-1.83-23.44-1.05,3.7-3.72,12.22-1.67,17.52-1.95,53.65-2.78,109.25-3.8,162.8-8.04,163.98-13,327.37-138.34,396.32-285.05l75.25-177.52-.2,3.8-56.74,174.04c-43.06,143.79,24.65,271.94,179.84,284.72,49.1,4.04,99.74,4.42,148.89,6.96,7.71.4,15.55,1.83,23.43,1.05Z"/>
</svg>